<svg xmlns="http://www.w3.org/2000/svg" width="336" height="56" viewBox="0 0 336 56" shape-rendering="crispEdges" role="img" aria-label="SAT RUSH FLY">
  <title>SAT RUSH FLY</title>
  <g fill="#ff4b78">
    <rect x="8" y="4" width="8" height="4"/>
    <rect x="32" y="4" width="8" height="4"/>
    <rect x="4" y="8" width="12" height="8"/>
    <rect x="32" y="8" width="12" height="8"/>
    <rect x="8" y="16" width="8" height="4"/>
    <rect x="32" y="16" width="8" height="4"/>
  </g>
  <g fill="#f3f4ed">
    <rect x="16" y="8" width="16" height="12"/>
    <rect x="12" y="20" width="24" height="4"/>
    <rect x="16" y="24" width="16" height="12"/>
    <rect x="20" y="36" width="8" height="12"/>
  </g>
  <g fill="#989aaa">
    <rect x="0" y="20" width="4" height="4"/>
    <rect x="44" y="20" width="4" height="4"/>
    <rect x="4" y="24" width="4" height="4"/>
    <rect x="40" y="24" width="4" height="4"/>
    <rect x="16" y="40" width="4" height="12"/>
    <rect x="28" y="40" width="4" height="12"/>
  </g>
  <g fill="#989aaa" fill-opacity="0.745">
    <rect x="12" y="24" width="4" height="4"/>
    <rect x="32" y="24" width="4" height="4"/>
    <rect x="8" y="28" width="8" height="4"/>
    <rect x="32" y="28" width="8" height="4"/>
    <rect x="4" y="32" width="12" height="4"/>
    <rect x="32" y="32" width="12" height="4"/>
    <rect x="0" y="36" width="16" height="4"/>
    <rect x="32" y="36" width="16" height="4"/>
    <rect x="0" y="40" width="12" height="4"/>
    <rect x="36" y="40" width="12" height="4"/>
    <rect x="4" y="44" width="8" height="4"/>
    <rect x="36" y="44" width="8" height="4"/>
  </g>
  <g fill="#f3f4ed">
    <rect x="60" y="12" width="16" height="4"/>
    <rect x="84" y="12" width="12" height="4"/>
    <rect x="104" y="12" width="20" height="4"/>
    <rect x="144" y="12" width="16" height="4"/>
    <rect x="168" y="12" width="4" height="24"/>
    <rect x="184" y="12" width="4" height="24"/>
    <rect x="196" y="12" width="16" height="4"/>
    <rect x="216" y="12" width="4" height="12"/>
    <rect x="232" y="12" width="4" height="12"/>
    <rect x="256" y="12" width="20" height="4"/>
    <rect x="280" y="12" width="4" height="24"/>
    <rect x="304" y="12" width="4" height="8"/>
    <rect x="320" y="12" width="4" height="8"/>
    <rect x="56" y="16" width="4" height="8"/>
    <rect x="80" y="16" width="4" height="8"/>
    <rect x="96" y="16" width="4" height="8"/>
    <rect x="112" y="16" width="4" height="24"/>
    <rect x="144" y="16" width="4" height="8"/>
    <rect x="160" y="16" width="4" height="8"/>
    <rect x="192" y="16" width="4" height="8"/>
    <rect x="256" y="16" width="4" height="8"/>
    <rect x="308" y="20" width="4" height="4"/>
    <rect x="316" y="20" width="4" height="4"/>
    <rect x="60" y="24" width="12" height="4"/>
    <rect x="80" y="24" width="20" height="4"/>
    <rect x="144" y="24" width="16" height="4"/>
    <rect x="196" y="24" width="12" height="4"/>
    <rect x="216" y="24" width="20" height="4"/>
    <rect x="256" y="24" width="16" height="4"/>
    <rect x="312" y="24" width="4" height="16"/>
    <rect x="72" y="28" width="4" height="8"/>
    <rect x="80" y="28" width="4" height="12"/>
    <rect x="96" y="28" width="4" height="12"/>
    <rect x="144" y="28" width="4" height="12"/>
    <rect x="152" y="28" width="4" height="4"/>
    <rect x="208" y="28" width="4" height="8"/>
    <rect x="216" y="28" width="4" height="12"/>
    <rect x="232" y="28" width="4" height="12"/>
    <rect x="256" y="28" width="4" height="12"/>
    <rect x="156" y="32" width="4" height="4"/>
    <rect x="56" y="36" width="16" height="4"/>
    <rect x="160" y="36" width="4" height="4"/>
    <rect x="172" y="36" width="12" height="4"/>
    <rect x="192" y="36" width="16" height="4"/>
    <rect x="280" y="36" width="20" height="4"/>
  </g>
  <g fill="#bdff32">
    <rect x="328" y="32" width="8" height="8"/>
  </g>
</svg>
